<svg xmlns="http://www.w3.org/2000/svg" viewBox="0 0 853 471">
  <!-- Left F -->
  <path fill="#ffffff" d="M139.11,160.61v37.16h-53V300.31H49.33V160.61Z" />
  <path fill="#ffe5ac" d="M114,249.25a18.41,18.41,0,1,1,18.53-18.32A18.63,18.63,0,0,1,114,249.25Z" />
  
  <!-- Right F -->
  <path fill="#ffffff" d="M679.59,160.61v37.16H626.54V300.31H589.8V160.61Z" />
  <path fill="#ffe5ac" d="M654.46,249.45A18.41,18.41,0,1,1,673,231.14,18.61,18.61,0,0,1,654.46,249.45Z" />
  
  <!-- First O -->
  <path fill="#ffffff" d="M215.15,160.59c-38.12-.14-70.2,31.57-70.4,69.57s31.57,69.94,69.76,70.18,70.18-31.5,70.36-69.53S253.2,160.72,215.15,160.59Zm-.5,108.1c-19.7-.12-36.08-16.61-36-36.21s16.65-36,36.32-35.89,36.06,16.62,36,36.23S234.29,268.81,214.65,268.69Z" />
  
  <!-- Second O -->
  <path fill="#ffffff" d="M363.25,160.59c-38.12-.14-70.21,31.57-70.4,69.57s31.57,69.94,69.75,70.18,70.19-31.5,70.37-69.53S401.3,160.72,363.25,160.59Zm-.5,108.1c-19.7-.12-36.08-16.61-36-36.21s16.65-36,36.32-35.89,36.06,16.62,36,36.23S382.39,268.81,362.75,268.69Z" />
  
  <!-- T -->
  <path fill="#ffffff" d="M464,160.58v.06H437.92v37.17h26V300.34h36.75v-.06h0V197.74h26V160.58Z" />
  
  <!-- I -->
  <path fill="#ffffff" d="M537.74,160.46v140h36.75v-.09h0V160.46Z" />
  
  <!-- Y -->
  <path fill="#ffffff" d="M823.66,160.44H778.3c-9.09,12.67-16.38,23.35-24.28,34.72-7.9-11.36-15.19-22-24.27-34.7H684.39C697.66,179,722.14,214.07,735.68,233v67.51h36.74v0h0V232.83C786,213.91,810.42,178.91,823.66,160.44Z" />
</svg> 