<svg id="Layer_2" data-name="Layer 2" xmlns="http://www.w3.org/2000/svg" viewBox="0 0 852.97 471.06"><defs><style>.cls-1{fill:#ffe5ac;}</style></defs><path d="M135.27,166.66v37.16h-53V306.36H45.49V166.66Z"/><path class="cls-1" d="M110.15,255.29A18.4,18.4,0,1,1,128.68,237,18.61,18.61,0,0,1,110.15,255.29Z"/><path d="M675.75,166.66v37.16h-53V306.36H586V166.66Z"/><path class="cls-1" d="M650.62,255.5a18.41,18.41,0,1,1,18.53-18.31A18.61,18.61,0,0,1,650.62,255.5Z"/><path d="M211.31,166.64c-38.12-.14-70.21,31.57-70.4,69.57s31.57,69.94,69.75,70.18,70.19-31.5,70.37-69.53S249.36,166.77,211.31,166.64Zm-.5,108.1c-19.7-.12-36.08-16.61-36-36.21s16.65-36,36.32-35.89,36.06,16.62,36,36.23S230.45,274.86,210.81,274.74Z"/><path d="M359.41,166.64c-38.12-.14-70.21,31.57-70.4,69.57s31.57,69.94,69.75,70.18,70.19-31.5,70.37-69.53S397.46,166.77,359.41,166.64Zm-.5,108.1c-19.7-.12-36.08-16.61-36-36.21s16.66-36,36.33-35.89,36.06,16.62,36,36.23S378.55,274.86,358.91,274.74Z"/><path d="M460.16,166.63v.06H434.08v37.17h26V306.39h36.74v-.06h0V203.79h26V166.63Z"/><path d="M533.9,166.5v140h36.74v-.09h0V166.5Z"/><path d="M819.82,166.49H774.46c-9.09,12.67-16.38,23.35-24.28,34.71-7.9-11.35-15.19-22-24.27-34.69H680.55C693.82,185,718.3,220.12,731.84,239v67.51h36.74v0h0V238.88C782.17,220,806.58,185,819.82,166.49Z"/></svg>